PathFileType	4	(X/Y/Z)	 s03c0301.trc
DataRate	CameraRate	NumFrames	NumMarkers	Units	OrigDataRate	OrigDataStartFrame	OrigNumFrames
200	200	4	52	mm	200	1251	2000
Frame#	Time	racr			lacr			c7			jug			rlel			rdr			llel			ldr			s2			lic			ric			lasi			rasi			rpsi			lpsi			rgt			lgt			rth1			rth2			rth3			rth4			rlfc			rmfc			rsh1			rsh2			rsh3			rsh4			rlmal			rmmal			rcal			rtoe			rmt5			rmt1			lth1			lth2			lth4			lth3			llfc			lmfc			lsh1			lsh2			lsh3			lsh4			llmal			lmmal			lcal			ltoe			lmt1			lmt5			SBIKE			LBIKE			RBIKE			
		X1	Y1	Z1	X2	Y2	Z2	X3	Y3	Z3	X4	Y4	Z4	X5	Y5	Z5	X6	Y6	Z6	X7	Y7	Z7	X8	Y8	Z8	X9	Y9	Z9	X10	Y10	Z10	X11	Y11	Z11	X12	Y12	Z12	X13	Y13	Z13	X14	Y14	Z14	X15	Y15	Z15	X16	Y16	Z16	X17	Y17	Z17	X18	Y18	Z18	X19	Y19	Z19	X20	Y20	Z20	X21	Y21	Z21	X22	Y22	Z22	X23	Y23	Z23	X24	Y24	Z24	X25	Y25	Z25	X26	Y26	Z26	X27	Y27	Z27	X28	Y28	Z28	X29	Y29	Z29	X30	Y30	Z30	X31	Y31	Z31	X32	Y32	Z32	X33	Y33	Z33	X34	Y34	Z34	X35	Y35	Z35	X36	Y36	Z36	X37	Y37	Z37	X38	Y38	Z38	X39	Y39	Z39	X40	Y40	Z40	X41	Y41	Z41	X42	Y42	Z42	X43	Y43	Z43	X44	Y44	Z44	X45	Y45	Z45	X46	Y46	Z46	X47	Y47	Z47	X48	Y48	Z48	X49	Y49	Z49	X50	Y50	Z50	X51	Y51	Z51	X52	Y52	Z52	
1251	6.2550	711.546541	1443.300479	-63.618439	723.964427	1443.980417	-370.067189	671.544475	1537.186492	-223.982869	649.004907	1359.947987	-220.703888	587.495953	1189.883115	40.315896	737.218208	957.423293	-28.786062	656.771661	1194.300181	-496.438829	749.129007	923.625267	-417.582271	113.564077	1329.312046	-227.789252	293.103884	1323.599657	-411.017821	270.037812	1363.089402	-45.125939	301.341927	1255.623607	-367.210913	292.782473	1293.756018	-81.787041	142.717647	1382.788500	-192.128526	151.207259	1372.950606	-276.307398	231.480293	1271.335264	-28.874856	213.093202	1204.525988	-415.700271	334.734842	1149.121190	-9.588450	415.380566	1111.471059	-13.006686	467.401463	1043.711451	-18.587062	436.791014	1139.410988	-25.621072	556.444156	947.972610	-45.851939	559.310151	932.319738	-175.698468	471.386764	803.565229	-22.376397	439.008973	721.239721	-34.352061	370.564701	665.675450	-30.766471	461.461707	706.298339	-60.958843	287.223380	556.343449	-45.666475	307.073825	564.546897	-135.934871	208.437373	527.890929	-78.318291	503.115381	438.657505	-120.658771	394.127107	451.939664	-34.522557	408.238316	464.392002	-151.435738	260.756537	1055.435024	-433.123834	303.840906	979.995958	-435.910832	338.062457	989.041587	-428.141963	303.209822	891.160264	-436.280971	343.017792	771.026787	-425.470119	339.674119	750.786780	-303.849059	242.930964	628.427504	-452.387522	225.710136	546.866795	-438.109694	165.365353	478.988273	-432.740299	256.257057	532.606193	-417.029950	101.827401	370.444538	-416.186821	139.483094	364.167729	-333.203828	32.442762	377.983491	-370.755524	244.096391	153.675416	-346.542588	177.030835	222.687695	-315.658391	146.558573	216.638663	-429.235529	-212.143254	947.241718	-227.806298	-4.657208	84.416511	-432.932513	-9.214800	81.486211	-32.177168	
1252	6.2600	711.269140	1442.020786	-61.413929	723.440926	1444.329023	-369.902871	671.906393	1536.950990	-223.144076	648.043665	1359.884993	-219.888194	586.083504	1189.191989	40.316920	736.625740	957.667564	-28.765167	655.762101	1194.756375	-496.193230	748.461456	923.887012	-417.325981	112.202589	1331.955722	-224.502292	291.289618	1327.519585	-409.859636	270.757590	1363.271743	-43.650329	299.883185	1258.206004	-367.247965	292.309182	1293.948115	-80.637875	143.204361	1384.126825	-190.513659	152.018600	1374.353590	-276.754252	230.843691	1271.002849	-27.945041	212.338991	1208.341436	-415.215050	332.144656	1146.221573	-9.282432	412.078817	1107.166997	-13.066490	462.912560	1038.547410	-19.076803	434.083736	1134.805693	-25.339169	550.366861	940.446333	-47.923149	551.583865	926.254073	-176.473752	467.969258	794.443836	-23.317265	437.588105	711.431612	-35.468388	370.508576	654.122993	-31.802676	461.591059	697.018724	-62.103995	289.593370	543.610888	-46.089456	308.729474	551.821012	-136.810968	211.602078	512.756806	-78.972948	508.816573	432.989570	-120.207649	399.270284	443.111097	-34.363543	413.177994	455.716794	-151.310875	263.989391	1059.486922	-433.453670	309.016187	985.208153	-436.836365	342.989094	995.006168	-428.844555	310.730900	896.376497	-438.093384	352.217233	776.275440	-428.025409	350.827510	755.722422	-306.858720	248.527616	635.036326	-453.336831	229.321446	554.304503	-438.834984	167.337760	487.951917	-432.698088	259.728910	539.622652	-418.449938	101.329667	380.983124	-415.139328	140.376034	373.737780	-332.353202	32.361104	390.446284	-368.751591	236.222099	158.459736	-347.306739	170.676846	228.652011	-314.154288	140.727464	225.381341	-428.470928	-212.028694	947.293504	-227.518930	-4.653688	84.494281	-432.900990	-9.222564	81.495905	-32.165701	
1253	6.2650	711.600222	1440.614091	-60.863375	722.821557	1444.806560	-369.993857	672.237283	1536.661724	-222.267644	647.500220	1359.702614	-219.802671	584.913563	1188.641771	40.242096	736.217279	957.822521	-28.741945	654.766574	1195.132714	-495.848308	747.956208	924.319196	-417.185374	112.484171	1334.453623	-220.397755	289.828384	1330.962942	-408.663849	271.838391	1363.057972	-42.349457	298.648186	1260.445176	-366.897615	292.166389	1293.430582	-79.804543	142.646853	1386.253926	-185.986713	153.398717	1375.732541	-265.198968	230.168685	1270.184734	-26.967332	211.789589	1212.051789	-414.809157	329.567647	1142.771163	-8.881933	408.728602	1102.301626	-13.051939	458.230503	1032.731187	-19.765883	431.446050	1129.742020	-24.816785	543.498273	932.452050	-49.612678	543.933672	919.044947	-177.661419	464.200539	785.103362	-24.392384	435.491232	701.177678	-36.687540	370.129441	642.253450	-33.131043	460.260799	687.621854	-63.433513	291.638083	530.718535	-47.056396	310.434148	538.856011	-137.933562	214.277268	497.751891	-79.898753	514.048119	426.539452	-119.652842	404.665864	434.041663	-34.194222	417.858093	446.402979	-151.152501	267.301102	1063.601961	-433.834673	314.150163	990.507959	-437.755445	347.786584	1001.098437	-429.611853	318.043477	901.754139	-439.825470	361.013889	781.700809	-430.796097	361.915637	760.782964	-309.821464	254.165140	641.989659	-454.894747	233.089712	561.698490	-439.526935	169.594416	496.847500	-432.637423	263.251637	546.527960	-419.339298	101.339894	391.255930	-414.286392	141.178157	383.005600	-331.601257	32.509744	402.810880	-367.847666	228.901389	163.695636	-347.675781	164.442617	234.691917	-312.406075	135.895302	234.318684	-427.885548	-211.860725	947.349104	-227.275876	-4.650706	84.555847	-432.883051	-9.208087	81.496389	-32.146087	
1254	6.2700	712.161149	1439.195766	-60.468799	722.206796	1445.320563	-370.220787	672.548353	1536.338154	-221.566527	647.177334	1359.459405	-219.871603	583.919461	1188.195489	40.178173	735.929147	957.913439	-28.665497	653.794887	1195.472122	-495.523169	748.293718	926.104667	-419.716104	112.337035	1336.250657	-217.477938	288.614371	1333.729443	-407.349097	272.789585	1362.549696	-40.858827	297.823821	1262.163211	-366.221453	292.416418	1292.093243	-79.387113	143.737508	1387.441104	-183.713233	153.166707	1378.044566	-265.637357	229.439023	1268.912865	-26.024461	211.772279	1215.385424	-414.761604	327.164537	1138.849975	-8.290797	405.331998	1096.918950	-13.001584	453.577291	1026.634515	-19.579383	428.544605	1124.113623	-24.242080	536.417825	923.889263	-50.798493	536.283308	911.451274	-177.424618	459.885131	775.383311	-25.647503	433.499311	690.811360	-38.077579	369.729905	630.056659	-34.591174	458.411678	677.927335	-65.091137	293.419910	517.374121	-48.491835	312.259182	525.876728	-139.181551	216.794173	482.930881	-81.197192	518.775781	419.459423	-118.594827	408.619873	424.349866	-34.124856	422.269919	436.845478	-151.081666	270.557617	1067.748241	-434.141342	319.040031	995.764585	-438.619522	352.419920	1006.996022	-430.466582	325.008324	907.075276	-441.515994	369.422562	787.064377	-433.280241	372.695002	765.925512	-312.601481	259.764042	648.830042	-456.593524	237.008418	568.807579	-440.218084	172.179780	505.443121	-432.699452	266.555567	552.598304	-418.765673	101.913198	401.291878	-413.780976	142.024337	392.094338	-331.084883	33.223756	414.435807	-367.002577	222.595037	169.645656	-347.587874	158.285866	240.754822	-310.335354	131.786529	243.204421	-427.439703	-211.696830	947.420957	-227.085084	-4.636598	84.602320	-432.867753	-9.203663	81.489465	-32.181440	
